<?xml version="1.0" encoding="UTF-8" standalone="no"?>
<!-- Created with Inkscape (http://www.inkscape.org/) -->

<svg
   xmlns:dc="http://purl.org/dc/elements/1.1/"
   xmlns:cc="http://creativecommons.org/ns#"
   xmlns:rdf="http://www.w3.org/1999/02/22-rdf-syntax-ns#"
   xmlns:svg="http://www.w3.org/2000/svg"
   xmlns="http://www.w3.org/2000/svg"
   xmlns:xlink="http://www.w3.org/1999/xlink"
   xmlns:sodipodi="http://sodipodi.sourceforge.net/DTD/sodipodi-0.dtd"
   xmlns:inkscape="http://www.inkscape.org/namespaces/inkscape"
   height="128.00000"
   id="svg1931"
   version="1.0"
   width="128.00000"
   x="0.00000000"
   y="0.00000000"
   inkscape:version="0.47 r22583"
   sodipodi:docname="tao_padlock.svg"
   inkscape:export-filename="/Users/jerome/Desktop/tao_padlock.png"
   inkscape:export-xdpi="90"
   inkscape:export-ydpi="90">
  <sodipodi:namedview
     pagecolor="#ffffff"
     bordercolor="#666666"
     borderopacity="1"
     objecttolerance="10"
     gridtolerance="10"
     guidetolerance="10"
     inkscape:pageopacity="0"
     inkscape:pageshadow="2"
     inkscape:window-width="1187"
     inkscape:window-height="982"
     id="namedview86"
     showgrid="false"
     inkscape:zoom="0.66"
     inkscape:cx="64"
     inkscape:cy="46.570806"
     inkscape:window-x="2290"
     inkscape:window-y="45"
     inkscape:window-maximized="0"
     inkscape:current-layer="svg1931" />
  <metadata
     id="metadata3">
    <rdf:RDF>
      <cc:Work
         rdf:about="">
        <dc:title></dc:title>
        <dc:description />
        <dc:subject>
          <rdf:Bag>
            <rdf:li>icon</rdf:li>
            <rdf:li />
            <rdf:li>lock</rdf:li>
            <rdf:li>security</rdf:li>
            <rdf:li>secure</rdf:li>
            <rdf:li>padlock</rdf:li>
            <rdf:li>signs_and_symbols</rdf:li>
          </rdf:Bag>
        </dc:subject>
        <dc:publisher>
          <cc:Agent
             rdf:about="http://www.openclipart.org">
            <dc:title>AJ Ashton</dc:title>
          </cc:Agent>
        </dc:publisher>
        <dc:creator>
          <cc:Agent>
            <dc:title>AJ Ashton</dc:title>
          </cc:Agent>
        </dc:creator>
        <dc:rights>
          <cc:Agent>
            <dc:title>AJ Ashton</dc:title>
          </cc:Agent>
        </dc:rights>
        <dc:date />
        <dc:format>image/svg+xml</dc:format>
        <dc:type
           rdf:resource="http://purl.org/dc/dcmitype/StillImage" />
        <cc:license
           rdf:resource="http://web.resource.org/cc/PublicDomain" />
        <dc:language>en</dc:language>
      </cc:Work>
      <cc:License
         rdf:about="http://web.resource.org/cc/PublicDomain">
        <cc:permits
           rdf:resource="http://web.resource.org/cc/Reproduction" />
        <cc:permits
           rdf:resource="http://web.resource.org/cc/Distribution" />
        <cc:permits
           rdf:resource="http://web.resource.org/cc/DerivativeWorks" />
      </cc:License>
    </rdf:RDF>
  </metadata>
  <defs
     id="defs3">
    <inkscape:perspective
       sodipodi:type="inkscape:persp3d"
       inkscape:vp_x="0 : 64 : 1"
       inkscape:vp_y="0 : 1000 : 0"
       inkscape:vp_z="128 : 64 : 1"
       inkscape:persp3d-origin="64 : 42.666667 : 1"
       id="perspective88" />
    <linearGradient
       id="linearGradient3057">
      <stop
         id="stop3059"
         offset="0.00000000"
         style="stop-color:#282828;stop-opacity:1.0000000;" />
      <stop
         id="stop3061"
         offset="1.0000000"
         style="stop-color:#282828;stop-opacity:0.00000000;" />
    </linearGradient>
    <linearGradient
       id="linearGradient2834">
      <stop
         id="stop2836"
         offset="0.00000000"
         style="stop-color:#ffe19c;stop-opacity:1.0000000;" />
      <stop
         id="stop2838"
         offset="1.0000000"
         style="stop-color:#b79e4f;stop-opacity:0.00000000;" />
    </linearGradient>
    <linearGradient
       id="linearGradient2780">
      <stop
         id="stop2782"
         offset="0.00000000"
         style="stop-color:#ffffff;stop-opacity:1.0000000;" />
      <stop
         id="stop2784"
         offset="1.0000000"
         style="stop-color:#ffffff;stop-opacity:0.00000000;" />
    </linearGradient>
    <linearGradient
       id="linearGradient2713">
      <stop
         id="stop2715"
         offset="0.00000000"
         style="stop-color:#000000;stop-opacity:1.0000000;" />
      <stop
         id="stop2717"
         offset="1.0000000"
         style="stop-color:#ffffff;stop-opacity:1.0000000;" />
    </linearGradient>
    <linearGradient
       id="linearGradient2701">
      <stop
         id="stop2703"
         offset="0.00000000"
         style="stop-color:#a47c44;stop-opacity:1.0000000;" />
      <stop
         id="stop2770"
         offset="0.75000000"
         style="stop-color:#baa363;stop-opacity:1.0000000;" />
      <stop
         id="stop2705"
         offset="1.0000000"
         style="stop-color:#d6c795;stop-opacity:1.0000000;" />
    </linearGradient>
    <linearGradient
       gradientTransform="matrix(2.151801,0,0,1.77085,-0.0513035,4.351838)"
       gradientUnits="userSpaceOnUse"
       id="linearGradient2707"
       spreadMethod="reflect"
       x1="29.613848"
       x2="44.723549"
       xlink:href="#linearGradient2701"
       y1="52.608921"
       y2="52.608921" />
    <linearGradient
       gradientTransform="matrix(1.121224,0.000000,0.000000,0.891883,0.000000,4.000000)"
       gradientUnits="userSpaceOnUse"
       id="linearGradient2719"
       spreadMethod="reflect"
       x1="28.071486"
       x2="28.071486"
       xlink:href="#linearGradient2713"
       y1="40.272228"
       y2="42.645634" />
    <linearGradient
       gradientTransform="matrix(2.21879,0,0,1.825981,-0.0513035,-1.012826)"
       gradientUnits="userSpaceOnUse"
       id="linearGradient2732"
       spreadMethod="reflect"
       x1="29.093641"
       x2="29.093641"
       xlink:href="#linearGradient2713"
       y1="46.357063"
       y2="47.295517" />
    <linearGradient
       gradientTransform="matrix(2.21879,0,0,1.825981,-0.0513035,-1.012826)"
       gradientUnits="userSpaceOnUse"
       id="linearGradient2736"
       spreadMethod="reflect"
       x1="24.261463"
       x2="24.605862"
       xlink:href="#linearGradient2713"
       y1="44.011002"
       y2="45.887836" />
    <linearGradient
       gradientTransform="scale(1.102326,0.907173)"
       gradientUnits="userSpaceOnUse"
       id="linearGradient2740"
       spreadMethod="reflect"
       x1="17.681860"
       x2="17.425413"
       xlink:href="#linearGradient2713"
       y1="60.433849"
       y2="62.779984" />
    <radialGradient
       cx="20.360580"
       cy="22.546398"
       fx="20.360580"
       fy="22.546396"
       gradientTransform="matrix(0.433337,0.000000,0.000000,1.434961,6.409890,-0.113137)"
       gradientUnits="userSpaceOnUse"
       id="radialGradient2788"
       r="15.156592"
       xlink:href="#linearGradient2780" />
    <radialGradient
       cx="20.360580"
       cy="22.546398"
       fx="20.360580"
       fy="22.546396"
       gradientTransform="matrix(0.500069,0.000000,0.000000,1.675192,5.002970,-5.108149)"
       gradientUnits="userSpaceOnUse"
       id="radialGradient2792"
       r="15.156592"
       xlink:href="#linearGradient2780" />
    <radialGradient
       cx="20.360580"
       cy="22.546398"
       fx="20.360580"
       fy="22.546396"
       gradientTransform="matrix(0.621397,0.000000,0.000000,1.882058,2.388831,-9.409409)"
       gradientUnits="userSpaceOnUse"
       id="radialGradient2796"
       r="15.156592"
       xlink:href="#linearGradient2780" />
    <radialGradient
       cx="20.360580"
       cy="22.546398"
       fx="20.360580"
       fy="22.546396"
       gradientTransform="matrix(0.433337,0,0,1.434961,6.40989,-0.113137)"
       gradientUnits="userSpaceOnUse"
       id="radialGradient2811"
       r="15.156592"
       xlink:href="#linearGradient2780" />
    <radialGradient
       cx="20.360580"
       cy="22.546398"
       fx="20.360580"
       fy="22.546396"
       gradientTransform="matrix(0.500069,0,0,1.675192,5.00297,-5.108149)"
       gradientUnits="userSpaceOnUse"
       id="radialGradient2813"
       r="15.156592"
       xlink:href="#linearGradient2780" />
    <radialGradient
       cx="20.360580"
       cy="22.546398"
       fx="20.360580"
       fy="22.546396"
       gradientTransform="matrix(0.621397,0,0,1.882058,2.388831,-9.409409)"
       gradientUnits="userSpaceOnUse"
       id="radialGradient2815"
       r="15.156592"
       xlink:href="#linearGradient2780" />
    <radialGradient
       cx="20.360580"
       cy="22.546398"
       fx="20.360580"
       fy="22.546396"
       gradientTransform="matrix(0.433337,0,0,1.434961,6.40989,-0.113137)"
       gradientUnits="userSpaceOnUse"
       id="radialGradient2817"
       r="15.156592"
       xlink:href="#linearGradient2780" />
    <radialGradient
       cx="20.360580"
       cy="22.546398"
       fx="20.360580"
       fy="22.546396"
       gradientTransform="matrix(0.500069,0,0,1.675192,5.00297,-5.108149)"
       gradientUnits="userSpaceOnUse"
       id="radialGradient2819"
       r="15.156592"
       xlink:href="#linearGradient2780" />
    <radialGradient
       cx="20.360580"
       cy="22.546398"
       fx="20.360580"
       fy="22.546396"
       gradientTransform="matrix(0.621397,0,0,1.882058,2.388831,-9.409409)"
       gradientUnits="userSpaceOnUse"
       id="radialGradient2821"
       r="15.156592"
       xlink:href="#linearGradient2780" />
    <radialGradient
       cx="17.191872"
       cy="14.639010"
       fx="17.191872"
       fy="14.639010"
       gradientTransform="scale(1.896245,0.527358)"
       gradientUnits="userSpaceOnUse"
       id="radialGradient2840"
       r="3.5649405"
       xlink:href="#linearGradient2834" />
    <radialGradient
       cx="21.595108"
       cy="8.9813547"
       fx="21.595108"
       fy="8.9813547"
       gradientTransform="matrix(2.366562,0.000000,0.000000,1.726511,-0.404355,-1.282600e-2)"
       gradientUnits="userSpaceOnUse"
       id="radialGradient2869"
       r="6.0678878"
       xlink:href="#linearGradient2834" />
    <radialGradient
       cx="21.595108"
       cy="8.9813547"
       fx="21.595108"
       fy="8.9813547"
       gradientTransform="matrix(-2.366562,0.000000,0.000000,1.726511,129.1226,-0.112925)"
       gradientUnits="userSpaceOnUse"
       id="radialGradient2873"
       r="6.0678878"
       xlink:href="#linearGradient2834" />
    <linearGradient
       gradientTransform="matrix(2.161083,0.000000,0.000000,1.804543,-5.130350e-2,2.267068)"
       gradientUnits="userSpaceOnUse"
       id="linearGradient2895"
       x1="33.184048"
       x2="33.184048"
       xlink:href="#linearGradient2780"
       y1="24.384579"
       y2="-13.170087" />
    <radialGradient
       cx="27.270315"
       cy="16.278088"
       fx="27.270315"
       fy="16.278088"
       gradientTransform="scale(0.973329,1.027402)"
       gradientUnits="userSpaceOnUse"
       id="radialGradient2929"
       r="13.638700"
       xlink:href="#linearGradient2780" />
    <linearGradient
       gradientTransform="matrix(2.210222,0.000000,0.000000,1.964283,-1.515862,-2.171324)"
       gradientUnits="userSpaceOnUse"
       id="linearGradient2935"
       x1="33.184048"
       x2="33.184048"
       xlink:href="#linearGradient2780"
       y1="24.384579"
       y2="-13.170087" />
    <linearGradient
       gradientTransform="matrix(1.632005,0.000000,0.000000,2.482509,-5.130350e-2,-1.282600e-2)"
       gradientUnits="userSpaceOnUse"
       id="linearGradient2943"
       x1="38.781849"
       x2="38.781849"
       xlink:href="#linearGradient2780"
       y1="9.5745525"
       y2="7.5863166" />
    <linearGradient
       gradientTransform="matrix(1.637520,0.000000,0.000000,2.474150,-5.130350e-2,-1.282600e-2)"
       gradientUnits="userSpaceOnUse"
       id="linearGradient2951"
       x1="38.362892"
       x2="39.723621"
       xlink:href="#linearGradient2780"
       y1="11.170151"
       y2="6.0918369" />
    <radialGradient
       cx="21.595108"
       cy="8.9813547"
       fx="21.595108"
       fy="8.9813547"
       gradientTransform="matrix(3.085042,0.000000,0.000000,2.052895,-15.98480,-3.149280)"
       gradientUnits="userSpaceOnUse"
       id="radialGradient2955"
       r="6.0678878"
       xlink:href="#linearGradient2834" />
    <radialGradient
       cx="21.595108"
       cy="8.9813547"
       fx="21.595108"
       fy="8.9813547"
       gradientTransform="matrix(-2.846279,0.000000,0.000000,2.087943,139.5254,-3.586178)"
       gradientUnits="userSpaceOnUse"
       id="radialGradient2959"
       r="6.0678878"
       xlink:href="#linearGradient2834" />
    <radialGradient
       cx="8.0178375"
       cy="231.98276"
       fx="8.0178375"
       fy="231.98276"
       gradientTransform="scale(3.741657,0.267261)"
       gradientUnits="userSpaceOnUse"
       id="radialGradient3063"
       r="7.4833150"
       xlink:href="#linearGradient3057" />
    <radialGradient
       cx="8.0178375"
       cy="231.98276"
       fx="8.0178375"
       fy="231.98276"
       gradientTransform="scale(3.741657,0.267261)"
       gradientUnits="userSpaceOnUse"
       id="radialGradient3069"
       r="7.4833150"
       xlink:href="#linearGradient3057" />
    <radialGradient
       cx="8.0178375"
       cy="231.98276"
       fx="8.0178375"
       fy="231.98276"
       gradientTransform="scale(3.741657,0.267261)"
       gradientUnits="userSpaceOnUse"
       id="radialGradient3071"
       r="7.4833150"
       xlink:href="#linearGradient3057" />
    <linearGradient
       gradientTransform="matrix(2.136116,0,0,1.825981,2.348697,-1.012826)"
       gradientUnits="userSpaceOnUse"
       id="linearGradient3080"
       spreadMethod="pad"
       x1="26.974447"
       x2="26.974447"
       xlink:href="#linearGradient2780"
       y1="68.680031"
       y2="44.981197" />
    <linearGradient
       gradientTransform="matrix(1.632005,0.000000,0.000000,2.436073,-5.130350e-2,2.009678)"
       gradientUnits="userSpaceOnUse"
       id="linearGradient3084"
       x1="35.995708"
       x2="35.995708"
       xlink:href="#linearGradient2780"
       y1="1.6246380"
       y2="11.710631" />
    <linearGradient
       gradientTransform="matrix(2.21879,0,0,1.825981,-0.0513035,-1.012826)"
       gradientUnits="userSpaceOnUse"
       id="linearGradient3086"
       spreadMethod="reflect"
       x1="17.681860"
       x2="17.425413"
       xlink:href="#linearGradient2713"
       y1="60.433849"
       y2="62.779984" />
    <inkscape:perspective
       id="perspective2909"
       inkscape:persp3d-origin="0.5 : 0.33333333 : 1"
       inkscape:vp_z="1 : 0.5 : 1"
       inkscape:vp_y="0 : 1000 : 0"
       inkscape:vp_x="0 : 0.5 : 1"
       sodipodi:type="inkscape:persp3d" />
    <linearGradient
       inkscape:collect="always"
       xlink:href="#linearGradient2780"
       id="linearGradient2942"
       gradientUnits="userSpaceOnUse"
       gradientTransform="matrix(2.136116,0,0,1.825981,2.348697,-1.012826)"
       spreadMethod="pad"
       x1="26.974447"
       y1="68.680031"
       x2="26.974447"
       y2="44.981197" />
    <linearGradient
       inkscape:collect="always"
       xlink:href="#linearGradient2713"
       id="linearGradient2954"
       gradientUnits="userSpaceOnUse"
       gradientTransform="matrix(2.21879,0,0,1.825981,-0.0513035,-1.012826)"
       spreadMethod="reflect"
       x1="17.681860"
       y1="60.433849"
       x2="17.425413"
       y2="62.779984" />
    <linearGradient
       inkscape:collect="always"
       xlink:href="#linearGradient2713"
       id="linearGradient2957"
       gradientUnits="userSpaceOnUse"
       gradientTransform="matrix(2.21879,0,0,1.825981,-0.0513035,-1.012826)"
       spreadMethod="reflect"
       x1="24.261463"
       y1="44.011002"
       x2="24.605862"
       y2="45.887836" />
    <linearGradient
       inkscape:collect="always"
       xlink:href="#linearGradient2713"
       id="linearGradient2960"
       gradientUnits="userSpaceOnUse"
       gradientTransform="matrix(2.21879,0,0,1.825981,-0.0513035,-1.012826)"
       spreadMethod="reflect"
       x1="29.093641"
       y1="46.357063"
       x2="29.093641"
       y2="47.295517" />
    <linearGradient
       inkscape:collect="always"
       xlink:href="#linearGradient2701"
       id="linearGradient2963"
       gradientUnits="userSpaceOnUse"
       gradientTransform="matrix(2.151801,0,0,1.77085,-0.0513035,4.351838)"
       spreadMethod="reflect"
       x1="29.613848"
       y1="52.608921"
       x2="44.723549"
       y2="52.608921" />
  </defs>
  <g
     id="layer2">
    <path
       d="M 64.359126,2.0000000 C 44.287226,2.0000000 28.128259,18.158966 28.128259,38.230867 L 28.128259,78.487385 L 38.192389,78.487385 L 38.192389,38.230867 C 38.192389,23.734494 49.862754,12.064130 64.359126,12.064130 C 78.855498,12.064130 90.525863,23.734494 90.525863,38.230867 L 90.525863,78.487385 L 100.58999,78.487385 L 100.58999,38.230867 C 100.58999,18.158966 84.431026,2.0000000 64.359126,2.0000000 z "
       id="rect2723"
       style="fill:#282828;fill-opacity:1.0000000;fill-rule:evenodd;stroke:none;stroke-width:0.62500000;stroke-linecap:round;stroke-linejoin:round;stroke-miterlimit:4.0000000;stroke-dashoffset:0.00000000;stroke-opacity:1.0000000" />
    <path
       d="M 64.359126,4.6292539 C 45.402331,4.6292539 30.141085,20.935813 30.141085,39.538022 L 30.141085,77.066368 C 30.141085,91.155570 38.917475,103.11605 51.401559,108.11367 C 42.456647,104.04079 36.179563,95.313819 36.179563,84.967072 L 36.179563,37.562846 C 36.179563,23.337627 47.849928,10.941742 62.346300,10.941742 L 66.371952,10.941742 C 80.868324,10.941742 92.538689,23.337627 92.538689,37.562846 L 92.538689,84.967072 C 92.538689,95.313819 86.261604,104.04079 77.316693,108.11367 C 89.800776,103.11605 98.577166,91.155570 98.577166,77.066368 L 98.577166,39.538022 C 98.577166,20.935813 83.315920,4.6292539 64.359126,4.6292539 z "
       id="path3082"
       style="opacity:0.64999998;fill:url(#linearGradient3084);fill-opacity:1.0000000;fill-rule:evenodd;stroke:none;stroke-width:0.62500000;stroke-linecap:round;stroke-linejoin:round;stroke-miterlimit:4.0000000;stroke-dashoffset:0.00000000;stroke-opacity:1.0000000" />
    <path
       d="M 64.359126,2.8539414 C 44.849100,2.8539414 29.142472,18.454974 29.142472,37.833835 L 29.142472,76.929009 C 29.142472,91.606445 38.174990,104.06629 51.023407,109.27255 C 41.817448,105.02963 35.357175,95.938304 35.357175,85.159575 L 35.357175,35.776195 C 35.357175,20.957066 47.368128,6.6939225 62.287558,6.6939225 L 66.430694,6.6939225 C 81.350124,6.6939225 93.361077,20.957066 93.361077,35.776195 L 93.361077,85.159575 C 93.361077,95.938304 86.900804,105.02963 77.694844,109.27255 C 90.543262,104.06629 99.575780,91.606445 99.575780,76.929009 L 99.575780,37.833835 C 99.575780,18.454974 83.869152,2.8539414 64.359126,2.8539414 z "
       id="path2931"
       style="opacity:0.49999997;fill:url(#linearGradient2951);fill-opacity:1.0000000;fill-rule:evenodd;stroke:none;stroke-width:0.62500000;stroke-linecap:round;stroke-linejoin:round;stroke-miterlimit:4.0000000;stroke-dashoffset:0.00000000;stroke-opacity:1.0000000" />
    <path
       d="M 49.470641,12.003202 C 44.032247,15.408450 40.971920,21.213331 41.571128,23.148345 C 42.216771,25.233301 46.037790,15.914775 56.854306,13.028936 C 65.194873,10.803680 56.853813,7.3802310 49.470641,12.003202 z "
       id="path2861"
       style="opacity:0.80000001;fill:url(#radialGradient2869);fill-opacity:1.0000000;fill-rule:evenodd;stroke:none;stroke-width:1.0000000px;stroke-linecap:butt;stroke-linejoin:miter;stroke-opacity:1.0000000" />
    <path
       d="M 79.247611,11.903104 C 84.686005,15.308352 87.746331,21.113233 87.147123,23.048247 C 86.501481,25.133203 82.680461,15.814677 71.863945,12.928838 C 63.523378,10.703581 71.864438,7.2801320 79.247611,11.903104 z "
       id="path2871"
       style="opacity:0.80000001;fill:url(#radialGradient2873);fill-opacity:1.0000000;fill-rule:evenodd;stroke:none;stroke-width:1.0000000px;stroke-linecap:butt;stroke-linejoin:miter;stroke-opacity:1.0000000" />
    <path
       d="M 64.359126,6.2794038 C 45.402331,6.2794038 30.141085,19.274072 30.141085,38.230867 L 30.141085,76.474559 C 30.141085,90.832324 38.917475,103.02079 51.401559,108.11367 C 42.456647,103.96315 36.179563,95.069836 36.179563,84.525863 L 36.179563,36.218041 C 36.179563,21.721668 47.849928,10.035751 62.346300,10.035751 L 66.371952,10.035751 C 80.868324,10.035751 92.538689,21.721668 92.538689,36.218041 L 92.538689,84.525863 C 92.538689,95.069836 86.261604,103.96315 77.316693,108.11367 C 89.800776,103.02079 98.577166,90.832324 98.577166,76.474559 L 98.577166,38.230867 C 98.577166,19.274072 83.315920,6.2794038 64.359126,6.2794038 z "
       id="rect2875"
       style="opacity:0.49999997;fill:url(#linearGradient2943);fill-opacity:1.0000000;fill-rule:evenodd;stroke:none;stroke-width:0.62500000;stroke-linecap:round;stroke-linejoin:round;stroke-miterlimit:4.0000000;stroke-dashoffset:0.00000000;stroke-opacity:1.0000000" />
    <path
       d="M 64.359126,4.0389347 C 37.597412,4.0389347 31.421633,27.354187 31.421633,37.899012 C 31.421633,69.533490 33.480224,69.533490 33.480224,37.899012 C 33.480224,14.700396 49.942868,5.5442086 64.359126,5.5442086 C 78.775384,5.5442086 95.238027,15.646794 95.238027,37.899012 C 95.238027,69.533490 97.296619,69.533490 97.296619,37.899012 C 97.296619,27.354187 91.120840,4.0389347 64.359126,4.0389347 z "
       id="path2933"
       style="opacity:0.80000001;fill:url(#linearGradient2935);fill-opacity:1.0000000;fill-rule:evenodd;stroke:none;stroke-width:0.62500000;stroke-linecap:round;stroke-linejoin:round;stroke-miterlimit:4.0000000;stroke-dashoffset:0.00000000;stroke-opacity:1.0000000" />
    <path
       d="M 64.359126,7.0913370 C 38.192389,7.0913370 32.153911,29.391473 32.153911,39.078761 C 32.153911,68.140624 34.166737,68.140624 34.166737,39.078761 C 34.166737,17.766728 50.263376,8.4741970 64.359126,8.4741970 C 78.454875,8.4741970 94.551515,18.636162 94.551515,39.078761 C 94.551515,68.140624 96.564341,68.140624 96.564341,39.078761 C 96.564341,29.391473 90.525863,7.0913370 64.359126,7.0913370 z "
       id="path2885"
       style="opacity:0.60000002;fill:url(#linearGradient2895);fill-opacity:1.0000000;fill-rule:evenodd;stroke:none;stroke-width:0.62500000;stroke-linecap:round;stroke-linejoin:round;stroke-miterlimit:4.0000000;stroke-dashoffset:0.00000000;stroke-opacity:1.0000000" />
    <path
       d="M 36.979617,16.487555 C 34.104370,21.735798 40.006680,18.418682 41.377593,16.761368 C 45.231503,12.102333 51.745249,8.7250830 57.462695,7.6228400 C 62.257428,6.6984824 62.988478,4.8471270 59.040233,4.5406553 C 51.168146,3.9296066 39.736027,11.456231 36.979617,16.487555 z "
       id="path2897"
       style="opacity:0.80000001;fill:#ffffff;fill-opacity:1.0000000;fill-rule:evenodd;stroke:none;stroke-width:1.0000000px;stroke-linecap:butt;stroke-linejoin:miter;stroke-opacity:1.0000000" />
    <path
       d="M 32.623431,25.155638 C 32.928211,27.720405 37.886922,19.357836 41.791152,15.431911 C 46.559495,10.637072 53.787418,7.2811100 57.264611,6.8376665 C 63.463032,6.0471897 60.520985,3.0096623 56.635935,3.7770922 C 42.515997,6.5662613 31.846251,18.615574 32.623431,25.155638 z "
       id="path2901"
       style="opacity:0.60000002;fill:#ffffff;fill-opacity:1.0000000;fill-rule:evenodd;stroke:none;stroke-width:1.0000000px;stroke-linecap:butt;stroke-linejoin:miter;stroke-opacity:1.0000000" />
    <path
       d="M 91.579935,16.451601 C 94.474486,21.689224 88.560004,18.393859 87.183000,16.741604 C 83.311963,12.096789 76.785826,8.7435420 71.064360,7.6623560 C 66.266258,6.7556569 64.915924,4.9102192 68.863013,4.5892139 C 76.732798,3.9491874 88.805023,11.430459 91.579935,16.451601 z "
       id="path2909"
       style="opacity:0.80000001;fill:#ffffff;fill-opacity:1.0000000;fill-rule:evenodd;stroke:none;stroke-width:1.0000000px;stroke-linecap:butt;stroke-linejoin:miter;stroke-opacity:1.0000000" />
    <path
       d="M 95.798321,24.924688 C 95.502987,27.490558 90.513520,19.146303 86.594864,15.234779 C 81.808901,10.457527 74.568672,7.1281990 71.089869,6.6975603 C 64.888580,5.9299082 67.797417,3.0024050 71.706633,3.6353351 C 85.848263,5.9367719 96.551418,18.381806 95.798321,24.924688 z "
       id="path2911"
       style="opacity:0.60000002;fill:#ffffff;fill-opacity:1.0000000;fill-rule:evenodd;stroke:none;stroke-width:1.0000000px;stroke-linecap:butt;stroke-linejoin:miter;stroke-opacity:1.0000000" />
    <path
       d="M 49.032092,11.138281 C 41.942618,15.187263 37.953187,22.089508 38.734312,24.390321 C 39.575969,26.869420 44.557039,15.789305 58.657416,12.357921 C 69.530154,9.7119990 58.656774,5.6413744 49.032092,11.138281 z "
       id="path2953"
       style="opacity:0.40000001;fill:url(#radialGradient2955);fill-opacity:1.0000000;fill-rule:evenodd;stroke:none;stroke-width:1.0000000px;stroke-linecap:butt;stroke-linejoin:miter;stroke-opacity:1.0000000" />
    <path
       d="M 79.540422,10.945305 C 86.081213,15.063412 89.761889,22.083498 89.041216,24.423589 C 88.264698,26.945014 83.669133,15.675732 70.660040,12.185767 C 60.628786,9.4946720 70.660632,5.3545529 79.540422,10.945305 z "
       id="path2957"
       style="opacity:0.40000001;fill:url(#radialGradient2959);fill-opacity:1.0000000;fill-rule:evenodd;stroke:none;stroke-width:1.0000000px;stroke-linecap:butt;stroke-linejoin:miter;stroke-opacity:1.0000000" />
    <path
       d="M 58.000000 62.000000 A 28.000000 2.0000000 0 1 1  2.0000000,62.000000 A 28.000000 2.0000000 0 1 1  58.000000 62.000000 z"
       id="path3055"
       style="opacity:0.40000001;fill:url(#radialGradient3063);fill-opacity:1.0000000;fill-rule:evenodd;stroke:none;stroke-width:0.62500000;stroke-linecap:round;stroke-linejoin:round;stroke-miterlimit:4.0000000;stroke-dashoffset:0.00000000;stroke-opacity:1.0000000"
       transform="matrix(2.012826,0.000000,0.000000,2.012826,3.974348,-1.282600e-2)" />
    <path
       d="M 58.000000 62.000000 A 28.000000 2.0000000 0 1 1  2.0000000,62.000000 A 28.000000 2.0000000 0 1 1  58.000000 62.000000 z"
       id="path3065"
       style="opacity:0.40000001;fill:url(#radialGradient3071);fill-opacity:1.0000000;fill-rule:evenodd;stroke:none;stroke-width:0.62500000;stroke-linecap:round;stroke-linejoin:round;stroke-miterlimit:4.0000000;stroke-dashoffset:0.00000000;stroke-opacity:1.0000000"
       transform="matrix(2.012826,0.000000,0.000000,2.516032,3.974348,-34.23087)" />
    <path
       d="M 58.000000 62.000000 A 28.000000 2.0000000 0 1 1  2.0000000,62.000000 A 28.000000 2.0000000 0 1 1  58.000000 62.000000 z"
       id="path3067"
       style="opacity:0.40000001;fill:url(#radialGradient3069);fill-opacity:1.0000000;fill-rule:evenodd;stroke:none;stroke-width:0.62500000;stroke-linecap:round;stroke-linejoin:round;stroke-miterlimit:4.0000000;stroke-dashoffset:0.00000000;stroke-opacity:1.0000000"
       transform="matrix(2.012826,0.000000,0.000000,2.012826,3.974348,-2.025652)" />
  </g>
  <rect
     y="57.359127"
     x="24.102608"
     width="80.513039"
     style="fill:url(#linearGradient2963);fill-opacity:1;fill-rule:evenodd;stroke:none"
     ry="0.5"
     rx="0.49999997"
     id="rect1941"
     height="66.259109" />
  <rect
     y="57.359127"
     x="24.102608"
     width="80.513039"
     style="opacity:0.02999998;fill:url(#linearGradient2960);fill-opacity:1;fill-rule:evenodd;stroke:none"
     ry="0.5"
     rx="0.49999997"
     id="rect2709"
     height="66.259109" />
  <rect
     y="57.359127"
     x="24.102608"
     width="80.513039"
     style="opacity:0.02999998;fill:url(#linearGradient2957);fill-opacity:1;fill-rule:evenodd;stroke:none"
     ry="0.5"
     rx="0.49999997"
     id="rect2734"
     height="66.259109" />
  <rect
     y="57.359127"
     x="24.102608"
     width="80.513039"
     style="opacity:0.02999998;fill:url(#linearGradient2954);fill-opacity:1;fill-rule:evenodd;stroke:none"
     ry="0.5"
     rx="0.49999997"
     id="rect2738"
     height="66.259109" />
  <path
     style="opacity:0.5;fill:#ffffff;fill-opacity:1;fill-rule:evenodd;stroke:none"
     id="path2727"
     d="m 26.61864,57.359126 c 1.81009,2.121649 18.145324,3.786234 38.655408,3.786234 20.228572,0 36.293252,-1.647152 38.483862,-3.727075 -0.0308,-0.0032 -0.0255,-0.05916 -0.0572,-0.05916 l -77.08208,0 z" />
  <g
     transform="matrix(1.719497,0,0,1.981605,4.420926,1.487591)"
     id="g2798">
    <path
       style="opacity:0.40277776;fill:url(#radialGradient2817);fill-opacity:1;fill-rule:evenodd;stroke:none"
       id="path2778"
       d="m 13.971247,30.766863 c -0.439542,2.629523 -0.930877,19.308865 0.69644,22.88 1.591863,3.493333 1.392882,-16.666667 5.273051,-19.84 3.921167,-3.206861 -5.554944,-5.52 -5.969491,-3.04 z" />
    <path
       style="opacity:0.3;fill:url(#radialGradient2819);fill-opacity:1;fill-rule:evenodd;stroke:none"
       id="path2790"
       d="m 13.728722,30.941568 c -0.507229,3.069739 -1.074226,22.541421 0.803688,26.710411 1.837,4.078163 1.607375,-19.456885 6.085063,-23.161476 4.524999,-3.743731 -6.410365,-6.44412 -6.888751,-3.548935 z" />
    <path
       style="opacity:0.2;fill:url(#radialGradient2821);fill-opacity:1;fill-rule:evenodd;stroke:none"
       id="path2794"
       d="m 13.231668,31.092008 c -0.630296,3.448814 -1.33486,25.325012 0.998682,30.008821 2.282701,4.581766 1.997363,-21.859573 7.561451,-26.021636 5.622877,-4.206036 -7.96568,-7.23989 -8.560133,-3.987185 z" />
  </g>
  <g
     transform="matrix(-1.719497,0,0,1.981605,124.2973,1.487605)"
     id="g2803">
    <path
       style="opacity:0.40277776;fill:url(#radialGradient2811);fill-opacity:1;fill-rule:evenodd;stroke:none"
       id="path2805"
       d="m 13.971247,30.766863 c -0.439542,2.629523 -0.930877,19.308865 0.69644,22.88 1.591863,3.493333 1.392882,-16.666667 5.273051,-19.84 3.921167,-3.206861 -5.554944,-5.52 -5.969491,-3.04 z" />
    <path
       style="opacity:0.3;fill:url(#radialGradient2813);fill-opacity:1;fill-rule:evenodd;stroke:none"
       id="path2807"
       d="m 13.728722,30.941568 c -0.507229,3.069739 -1.074226,22.541421 0.803688,26.710411 1.837,4.078163 1.607375,-19.456885 6.085063,-23.161476 4.524999,-3.743731 -6.410365,-6.44412 -6.888751,-3.548935 z" />
    <path
       style="opacity:0.2;fill:url(#radialGradient2815);fill-opacity:1;fill-rule:evenodd;stroke:none"
       id="path2809"
       d="m 13.231668,31.092008 c -0.630296,3.448814 -1.33486,25.325012 0.998682,30.008821 2.282701,4.581766 1.997363,-21.859573 7.561451,-26.021636 5.622877,-4.206036 -7.96568,-7.23989 -8.560133,-3.987185 z" />
  </g>
  <g
     transform="matrix(0.13443997,0,0,0.13443997,-14.776877,37.464904)"
     style="display:inline"
     id="g2891">
    <g
       id="text3035"
       style="font-size:40px;font-style:normal;font-weight:normal;line-height:125%;letter-spacing:0px;word-spacing:0px;fill:#000000;fill-opacity:1;stroke:none;font-family:Sans">
      <path
         inkscape:connector-curvature="0"
         id="path3217"
         style="font-size:288px;font-variant:normal;font-weight:bold;font-stretch:normal;font-family:TeX Gyre Adventor;-inkscape-font-specification:TeX Gyre Adventor Bold"
         d="m 672.772,422.376 c 0,-47.51995 -37.15205,-84.672 -85.248,-84.672 -46.36795,0 -84.384,37.72805 -84.384,83.52 0,46.07995 38.01605,83.52 84.672,83.52 46.36795,0 84.96,-37.44004 84.96,-82.368 m -38.592,-1.152 c 0,26.78397 -20.73603,48.384 -46.08,48.384 -25.91997,0 -46.368,-21.60003 -46.368,-48.96 0,-26.20797 21.02403,-47.808 46.08,-47.808 25.63197,0 46.368,21.88803 46.368,48.384" />
    </g>
    <rect
       transform="scale(1,-1)"
       ry="18"
       rx="18"
       y="-565.75"
       x="523.375"
       height="36"
       width="132"
       id="rect3047"
       style="fill:#000000;fill-opacity:1;fill-rule:evenodd;stroke:none" />
    <rect
       ry="18"
       rx="18"
       y="210.02499"
       x="571.01245"
       height="100"
       width="36"
       id="rect3857"
       style="fill:#eeaa11;fill-opacity:1;fill-rule:evenodd;stroke:none" />
    <rect
       transform="matrix(0.8660254,-0.5,0.5,0.8660254,0,0)"
       ry="18"
       rx="18"
       y="448.51941"
       x="282.21094"
       height="100"
       width="36"
       id="rect3857-1"
       style="fill:#dd3311;fill-opacity:1;fill-rule:evenodd;stroke:none;display:inline" />
    <rect
       transform="matrix(0.5,-0.8660254,-0.8660254,-0.5,0,0)"
       ry="18"
       rx="18"
       y="-610.18018"
       x="-88.260536"
       height="100"
       width="36"
       id="rect3857-0"
       style="fill:#aa0022;fill-opacity:1;fill-rule:evenodd;stroke:none;display:inline" />
    <rect
       transform="matrix(0.8660254,0.5,-0.5,0.8660254,0,0)"
       ry="18"
       rx="18"
       y="-141.11562"
       x="701.81683"
       height="100"
       width="36"
       id="rect3857-5"
       style="fill:#88bb00;fill-opacity:1;fill-rule:evenodd;stroke:none;display:inline" />
    <rect
       transform="matrix(0.5,0.8660254,-0.8660254,0.5,0,0)"
       ry="18"
       rx="18"
       y="-510.414"
       x="641.78955"
       height="100"
       width="36"
       id="rect3857-7"
       style="fill:#229988;fill-opacity:1;fill-rule:evenodd;stroke:none;display:inline" />
  </g>
  <path
     style="opacity:0.24999994;fill:url(#linearGradient2942);fill-opacity:1;fill-rule:evenodd;stroke:none"
     id="rect3077"
     d="m 103.11564,114.72466 0,7.88716 c 0,0.55755 -0.43214,1.00641 -0.96891,1.00641 l -75.57521,0 c -0.536777,0 -0.968913,-0.44886 -0.968913,-1.00641 l 0,-28.015415 c 0,29.516505 77.513033,-20.878993 77.513033,20.128255 z" />
  <path
     style="opacity:0.5;fill:#000000;fill-opacity:1;fill-rule:evenodd;stroke:none"
     id="path2768"
     d="m 25.646537,123.61824 c 1.810091,-2.12165 18.14532,-3.78624 38.655404,-3.78624 20.228577,0 36.293259,1.64715 38.483859,3.72708 -0.0308,0.003 -0.0255,0.0592 -0.0572,0.0592 l -77.082083,0 z" />
</svg>
