<?xml version="1.0" encoding="UTF-8" standalone="no"?>
<!-- Created with Inkscape (http://www.inkscape.org/) -->

<svg
   xmlns:svg="http://www.w3.org/2000/svg"
   xmlns="http://www.w3.org/2000/svg"
   version="1.0"
   width="672"
   height="504"
   id="svg2">
  <defs
     id="defs40" />
  <rect
     width="672"
     height="504"
     x="0"
     y="0"
     id="rect4"
     style="fill:#131313" />
  <rect
     width="96"
     height="336"
     x="0"
     y="0"
     id="rect6"
     style="fill:#c0c0c0" />
  <rect
     width="96"
     height="336"
     x="96"
     y="0"
     id="rect8"
     style="fill:#c0c000" />
  <rect
     width="96"
     height="336"
     x="192"
     y="0"
     id="rect10"
     style="fill:#00c0c0" />
  <rect
     width="96"
     height="336"
     x="288"
     y="0"
     id="rect12"
     style="fill:#00c000" />
  <rect
     width="96"
     height="336"
     x="384"
     y="0"
     id="rect14"
     style="fill:#c000c0" />
  <rect
     width="96"
     height="336"
     x="480"
     y="0"
     id="rect16"
     style="fill:#c00000" />
  <rect
     width="96"
     height="336"
     x="576"
     y="0"
     id="rect18"
     style="fill:#0000c0" />
  <rect
     width="96"
     height="42"
     x="0"
     y="336"
     id="rect20"
     style="fill:#0000c0" />
  <rect
     width="96"
     height="42"
     x="192"
     y="336"
     id="rect22"
     style="fill:#c000c0" />
  <rect
     width="96"
     height="42"
     x="384"
     y="336"
     id="rect24"
     style="fill:#00c0c0" />
  <rect
     width="96"
     height="42"
     x="576"
     y="336"
     id="rect26"
     style="fill:#c0c0c0" />
  <rect
     width="120"
     height="126"
     x="0"
     y="378"
     id="rect28"
     style="fill:#00214c" />
  <rect
     width="120"
     height="126"
     x="120"
     y="378"
     id="rect30"
     style="fill:#ffffff" />
  <rect
     width="120"
     height="126"
     x="240"
     y="378"
     id="rect32"
     style="fill:#32006a" />
  <rect
     width="32"
     height="126"
     x="480"
     y="378"
     id="rect34"
     style="fill:#090909" />
  <rect
     width="32"
     height="126"
     x="544"
     y="378"
     id="rect36"
     style="fill:#1d1d1d" />
</svg>
