<?xml version="1.0" encoding="UTF-8" standalone="no"?>
<!-- Created with Inkscape (http://www.inkscape.org/) -->

<svg
   xmlns:svg="http://www.w3.org/2000/svg"
   xmlns="http://www.w3.org/2000/svg"
   version="1.0"
   width="672"
   height="504"
   id="svg2">
  <defs
     id="defs40" />
  <g
     id="g2849">
    <rect
       width="672"
       height="504"
       x="0"
       y="0"
       id="rect4"
       style="fill:#333333;fill-opacity:1" />
    <rect
       width="96"
       height="336"
       x="0"
       y="0"
       id="rect6"
       style="fill:#cccccc;fill-opacity:1" />
    <rect
       width="96"
       height="336"
       x="96"
       y="0"
       id="rect8"
       style="fill:#ffcc00;fill-opacity:1" />
    <rect
       width="96"
       height="336"
       x="192"
       y="0"
       id="rect10"
       style="fill:#3399ff;fill-opacity:1" />
    <rect
       width="96"
       height="336"
       x="288"
       y="0"
       id="rect12"
       style="fill:#33cc00;fill-opacity:1" />
    <rect
       width="96"
       height="336"
       x="384"
       y="0"
       id="rect14"
       style="fill:#cc33cc;fill-opacity:1" />
    <rect
       width="96"
       height="336"
       x="480"
       y="0"
       id="rect16"
       style="fill:#cc0000;fill-opacity:1" />
    <rect
       width="96"
       height="336"
       x="576"
       y="0"
       id="rect18"
       style="fill:#0033cc;fill-opacity:1" />
    <rect
       width="96"
       height="42"
       x="0"
       y="336"
       id="rect20"
       style="fill:#0033cc;fill-opacity:1" />
    <rect
       width="96"
       height="42"
       x="192"
       y="336"
       id="rect22"
       style="fill:#cc33cc;fill-opacity:1" />
    <rect
       width="96"
       height="42"
       x="384"
       y="336"
       id="rect24"
       style="fill:#3399ff;fill-opacity:1" />
    <rect
       width="96"
       height="42"
       x="576"
       y="336"
       id="rect26"
       style="fill:#cccccc;fill-opacity:1" />
    <rect
       width="120"
       height="126"
       x="0"
       y="378"
       id="rect28"
       style="fill:#000000;fill-opacity:1" />
    <rect
       width="120"
       height="126"
       x="120"
       y="378"
       id="rect30"
       style="fill:#ffffff;fill-opacity:1" />
    <rect
       width="120"
       height="126"
       x="240"
       y="378"
       id="rect32"
       style="fill:#999999;fill-opacity:1" />
    <rect
       width="32"
       height="126"
       x="480"
       y="378"
       id="rect34"
       style="fill:#000000;fill-opacity:1" />
    <rect
       width="32"
       height="126"
       x="544"
       y="378"
       id="rect36"
       style="fill:#666666;fill-opacity:1" />
  </g>
</svg>
